<?xml version="1.0" encoding="UTF-8"?>
<svg version="1.1" xmlns="http://www.w3.org/2000/svg" width="180" height="125">
<path transform="translate(0 -55) scale(.2646)" d="m463.65 219.34c-16.82 0.41-32.73 17.35-47.60 50.72-9.03 20.27-11.92 24.55-19.52 28.94-7.46 4.31-9.45 2.67-14.6-12.07-4.43-12.70-13.07-26.67-20.03-32.37-6.53-5.35-20.16-1.02-29.22 9.29-5.10 5.81-12.35 21.11-13.46 28.4-0.51 3.36-1.87 11-3.02 16.96-1.15 5.96-3.21 18.51-4.58 27.88-1.52 10.45-3.61 19.34-5.41 23.00-3.09 6.32-9.61 12.99-11.70 11.96-0.68-0.33-4.11-8.06-7.62-17.17-13.11-34.02-30.03-47.13-43.55-33.73-6.58 6.52-9.59 12.89-11.33 23.99-1.56 9.96-3.56 65.43-3.02 83.89 0.39 13.47-2.33 25.86-6.58 29.81-1.58 1.47-3.29 2.47-3.80 2.21-0.51-0.25-2.69-4.36-4.84-9.13-2.14-4.77-7.38-13.16-11.63-18.66-6.38-8.24-8.95-10.58-14.75-13.45-6.25-3.08-7.46-3.24-11.05-1.41-12.91 6.56-21.05 44.73-15.5 72.64 3.24 16.29 2.38 21.87-4.18 26.97-4.23 3.29-4.46 3.29-10.48 0.02-9.40-5.09-11.06-3.67-23.27 19.97-9.77 18.93-13.96 30.59-13.85 38.62 0.02 2.05 1.20 6.94 2.62 10.86 1.41 3.92 2.15 7.95 1.64 8.96-2.49 4.95-49.60 35.17-67.76 43.47-6.49 2.96-15.15 7.22-19.24 9.46-2.45 1.34-5.54 2.76-8.33 3.91v2.73c0 0.47 0.17 0.98 0 1.42-0.39 0.98-1.03 1.86-1.42 2.85-0.12 0.32 0 1.73 0 2.14v0.71c0 0.23-0.16 0.54 0 0.71 1.47 1.47-0.05-2.25 1.42 0.71 0.10 0.21-0.07 0.48 0 0.71 1.72 5.17-0.20-1.12 1.42 2.14 0.10 0.21-0.16 0.54 0 0.71 0.16 0.16 0.54-0.16 0.71 0 0.08 0.08 0.04 0.21 0.00 0.34 0.34-0.04 0.64-0.03 0.84 0.06 0.92 0.45 3.95-0.90 6.74-3.00 2.78-2.10 6.64-4.72 8.58-5.81 1.93-1.09 9.55-6.38 16.93-11.75 7.38-5.36 21.26-14.94 30.84-21.27 9.58-6.32 22.92-15.16 29.63-19.63 6.71-4.46 15.33-9.78 19.15-11.82l6.94-3.69 1.54 4.51c0.85 2.48 2.41 4.93 3.48 5.45 6.39 3.11 28.26 8.17 46.82 10.83 28.13 4.03 27.95 4.01 33.59 2.31 5.02-1.51 6.43-3.85 8.65-14.44 0.70-3.35 1.30-3.67 6.37-3.41 9.23 0.48 22.89 7.79 36.89 19.76 10.08 8.61 14.07 11.23 24.62 16.14 13.93 6.48 24.53 9.16 35.62 9.00 8.57-0.11 14.51-3.41 19.68-10.93 8.00-11.66 5.03-24.94-10.27-45.87-11.22-15.33-11.87-17.59-6.01-20.62 11.34-5.85 51.02 11.66 100.06 44.20 20.68 13.72 27.15 15.91 36.48 12.33 3.27-1.25 9.21-2.34 13.19-2.41 9.46-0.17 21.84-3.92 26.53-8.03 4.36-3.82 8.64-11.97 9.14-17.44 0.88-9.62-3.55-19.22-17.64-38.16-12.53-16.83-13.34-18.93-8.85-22.89 5.98-5.27 18.16-7.33 42.91-7.25 24.79 0.08 45.28-2.86 55.69-8.01 3.09-1.53 8.90-5.39 12.91-8.57 12.89-10.24 13.40-20.51 1.78-35.59-5.51-7.15-8.64-9.91-17.16-15.10-11.48-6.99-13.38-9.51-10.94-14.49 1.62-3.31 2.86-3.97 27.48-14.58 5.38-2.32 14.79-8.05 20.90-12.75 9.10-6.99 11.96-9.98 15.82-16.63 6.26-10.77 6.70-13.72 3.60-23.88-3.24-10.62-9.98-17.47-21.25-21.60-11.03-4.04-10.16-7.45 4.61-18.04 7.11-5.09 9.85-8.01 14.08-14.99 6.02-9.94 6.43-13.57 2.72-23.75-2.25-6.17-2.22-6.39 2.34-15.29 5.37-10.48 5.48-14.03 0.67-20.51-3.98-5.37-11.4-9.19-19.77-10.21-3.53-0.42-7.47-1.78-9.23-3.18-1.68-1.34-5.51-3.16-8.50-4.04-4.60-1.36-8.07-0.72-22.69 4.12-9.49 3.15-18.35 5.79-19.69 5.86-1.71 0.09-3.83-1.90-7.15-6.73-8.02-11.68-17.92-14.26-32.98-8.58-9.37 3.53-11.93 5.22-22.57 14.85-10.14 9.18-17.66 12.34-20.39 8.55-0.97-1.35-2.56-7.24-3.53-13.09-3.17-19.12-10.96-28.56-23.99-29.07-0.54-0.02-1.08-0.02-1.63-0.01z" fill="#6d4b4b"/>
<path d="m36.45 101.1 61.29-36.77 22.38-14.09 41.96-31.00-43.09 31.27-21.31 13.29-47.67 27.35-22.05 15.10" fill="#ffffff"/>
<path d="m50.00 91.15s4.18-8.79-0.91-31.57c5.66 23.29 1.69 31.23 1.69 31.23z" fill="#fff"/>
<path d="m67.38 81.29s6.68-22.09 1.58-44.86c5.46 21.22-0.87 44.53-0.87 44.53z" fill="#fff"/>
<path d="m83.41 72.34s11.03-24.49 10.94-48.87c0.85 24.22-10.23 48.54-10.23 48.54z" fill="#fff"/>
<path d="m106.47 58.38s9.42-18.38 15.08-42.92c-5.00 24.49-14.37 42.59-14.37 42.59z" fill="#fff"/>
<path d="m134.56 39.31s0.28-3.46 8.91-25.26c-8.62 22.82-8.62 25.03-8.62 25.03z" fill="#fff"/>
<path d="m54.08 90.38s11.82 0.62 32.99 14.74c-20.97-15.07-32.38-15.05-32.38-15.05z" fill="#fff"/>
<path d="m75.26 77.51s27.87 3.99 49.04 18.11c-20.97-15.07-48.35-18.45-48.35-18.45z" fill="#fff"/>
<path d="m96.03 65.32s30.64 5.31 56.81 8.48c-25.53-3.70-56.41-8.77-56.41-8.77z" fill="#fff"/>
<path d="m118.95 50.91s23.42 1.13 45.26-4.59c-23.78 5.30-44.82 4.25-44.82 4.25z" fill="#fff"/>
<path d="m149.18 28.69s7.01 0.73 14.19-0.51c-7.58 1.03-13.88 0.36-13.88 0.36z" fill="#fff"/>
</svg>
